<mxfile host="app.diagrams.net" modified="2021-03-29T22:29:19.045Z" agent="5.0 (Windows NT 10.0; Win64; x64) AppleWebKit/537.36 (KHTML, like Gecko) Chrome/89.0.4389.82 Safari/537.36" etag="_GmiBKHZFMNfx6s0fZjY" version="14.1.1" type="github">
  <diagram id="1AalQ-GsTw3ZI122VdQ2" name="Page-1">
    <mxGraphModel dx="2420" dy="960" grid="1" gridSize="10" guides="1" tooltips="1" connect="1" arrows="1" fold="1" page="1" pageScale="1" pageWidth="1169" pageHeight="827" math="0" shadow="0">
      <root>
        <mxCell id="0" />
        <mxCell id="1" parent="0" />
        <mxCell id="AjbBa6_dqzmwRnqRVF5m-1" value="Billing" style="verticalLabelPosition=bottom;aspect=fixed;html=1;verticalAlign=top;strokeColor=none;align=center;outlineConnect=0;shape=mxgraph.citrix.database;fontSize=24;labelPosition=center;fontStyle=1" vertex="1" parent="1">
          <mxGeometry x="484.5" y="50" width="51" height="60" as="geometry" />
        </mxCell>
        <mxCell id="AjbBa6_dqzmwRnqRVF5m-22" style="edgeStyle=orthogonalEdgeStyle;rounded=0;orthogonalLoop=1;jettySize=auto;html=1;entryX=1;entryY=0.5;entryDx=0;entryDy=0;fontSize=16;" edge="1" parent="1" source="AjbBa6_dqzmwRnqRVF5m-2" target="AjbBa6_dqzmwRnqRVF5m-17">
          <mxGeometry relative="1" as="geometry" />
        </mxCell>
        <mxCell id="AjbBa6_dqzmwRnqRVF5m-2" value="LegalEntities" style="verticalLabelPosition=bottom;aspect=fixed;html=1;verticalAlign=top;strokeColor=none;align=center;outlineConnect=0;shape=mxgraph.citrix.database;fontSize=16;labelPosition=center;fontStyle=0" vertex="1" parent="1">
          <mxGeometry x="830" y="650" width="51" height="60" as="geometry" />
        </mxCell>
        <mxCell id="AjbBa6_dqzmwRnqRVF5m-5" style="edgeStyle=orthogonalEdgeStyle;rounded=0;orthogonalLoop=1;jettySize=auto;html=1;" edge="1" parent="1" source="AjbBa6_dqzmwRnqRVF5m-4" target="AjbBa6_dqzmwRnqRVF5m-2">
          <mxGeometry relative="1" as="geometry" />
        </mxCell>
        <mxCell id="AjbBa6_dqzmwRnqRVF5m-4" value="LegalEntity&lt;br style=&quot;font-size: 16px;&quot;&gt;Service" style="verticalLabelPosition=top;aspect=fixed;html=1;verticalAlign=bottom;strokeColor=none;align=center;outlineConnect=0;shape=mxgraph.citrix.web_service;fontSize=16;labelPosition=center;" vertex="1" parent="1">
          <mxGeometry x="930" y="520" width="63" height="60" as="geometry" />
        </mxCell>
        <mxCell id="AjbBa6_dqzmwRnqRVF5m-9" style="edgeStyle=orthogonalEdgeStyle;rounded=0;orthogonalLoop=1;jettySize=auto;html=1;fontSize=16;" edge="1" parent="1" source="AjbBa6_dqzmwRnqRVF5m-6" target="AjbBa6_dqzmwRnqRVF5m-4">
          <mxGeometry relative="1" as="geometry">
            <Array as="points">
              <mxPoint x="1072" y="550" />
            </Array>
          </mxGeometry>
        </mxCell>
        <mxCell id="AjbBa6_dqzmwRnqRVF5m-6" value="WEB интерфейс&lt;br style=&quot;font-size: 16px;&quot;&gt;CRUD операции" style="shadow=0;dashed=0;html=1;strokeColor=none;fillColor=#4495D1;labelPosition=center;verticalLabelPosition=bottom;verticalAlign=top;align=center;outlineConnect=0;shape=mxgraph.veeam.2d.web_ui;fontSize=16;" vertex="1" parent="1">
          <mxGeometry x="1050" y="657.6" width="44.8" height="44.8" as="geometry" />
        </mxCell>
        <mxCell id="AjbBa6_dqzmwRnqRVF5m-13" style="edgeStyle=orthogonalEdgeStyle;rounded=0;orthogonalLoop=1;jettySize=auto;html=1;fontSize=16;" edge="1" parent="1" source="AjbBa6_dqzmwRnqRVF5m-11" target="AjbBa6_dqzmwRnqRVF5m-12">
          <mxGeometry relative="1" as="geometry" />
        </mxCell>
        <mxCell id="AjbBa6_dqzmwRnqRVF5m-11" value="Identity&lt;br&gt;Service" style="verticalLabelPosition=top;aspect=fixed;html=1;verticalAlign=bottom;strokeColor=none;align=center;outlineConnect=0;shape=mxgraph.citrix.web_service;fontSize=16;labelPosition=center;" vertex="1" parent="1">
          <mxGeometry x="110" y="520" width="63" height="60" as="geometry" />
        </mxCell>
        <mxCell id="AjbBa6_dqzmwRnqRVF5m-21" style="edgeStyle=orthogonalEdgeStyle;rounded=0;orthogonalLoop=1;jettySize=auto;html=1;entryX=0;entryY=0.5;entryDx=0;entryDy=0;fontSize=16;" edge="1" parent="1" source="AjbBa6_dqzmwRnqRVF5m-12" target="AjbBa6_dqzmwRnqRVF5m-17">
          <mxGeometry relative="1" as="geometry" />
        </mxCell>
        <mxCell id="AjbBa6_dqzmwRnqRVF5m-12" value="&lt;span style=&quot;font-weight: 700 ; text-align: left&quot;&gt;&lt;font style=&quot;font-size: 16px&quot;&gt;IdentityServer&lt;br&gt;Data&lt;/font&gt;&lt;/span&gt;" style="verticalLabelPosition=bottom;aspect=fixed;html=1;verticalAlign=top;strokeColor=none;align=center;outlineConnect=0;shape=mxgraph.citrix.database;fontSize=16;labelPosition=center;fontStyle=0" vertex="1" parent="1">
          <mxGeometry x="116" y="650" width="51" height="60" as="geometry" />
        </mxCell>
        <mxCell id="AjbBa6_dqzmwRnqRVF5m-15" value="Worker_To_LegalEntity" style="swimlane;childLayout=stackLayout;horizontal=1;startSize=30;horizontalStack=0;rounded=1;fontSize=14;fontStyle=0;strokeWidth=2;resizeParent=0;resizeLast=1;shadow=0;dashed=0;align=center;" vertex="1" parent="1">
          <mxGeometry x="430" y="300" width="160" height="120" as="geometry" />
        </mxCell>
        <mxCell id="AjbBa6_dqzmwRnqRVF5m-16" value="+ID&#xa;+WorkerId&#xa;+LegalEntityId" style="align=left;strokeColor=none;fillColor=none;spacingLeft=4;fontSize=12;verticalAlign=top;resizable=0;rotatable=0;part=1;" vertex="1" parent="AjbBa6_dqzmwRnqRVF5m-15">
          <mxGeometry y="30" width="160" height="90" as="geometry" />
        </mxCell>
        <mxCell id="AjbBa6_dqzmwRnqRVF5m-23" style="edgeStyle=orthogonalEdgeStyle;rounded=0;orthogonalLoop=1;jettySize=auto;html=1;fontSize=16;" edge="1" parent="1" source="AjbBa6_dqzmwRnqRVF5m-17" target="AjbBa6_dqzmwRnqRVF5m-16">
          <mxGeometry relative="1" as="geometry" />
        </mxCell>
        <mxCell id="AjbBa6_dqzmwRnqRVF5m-17" value="Права доступа в Billing" style="rounded=0;whiteSpace=wrap;html=1;fontSize=16;horizontal=0;" vertex="1" parent="1">
          <mxGeometry x="475" y="580" width="70" height="200" as="geometry" />
        </mxCell>
        <mxCell id="AjbBa6_dqzmwRnqRVF5m-24" style="edgeStyle=orthogonalEdgeStyle;rounded=0;orthogonalLoop=1;jettySize=auto;html=1;fontSize=16;" edge="1" parent="1" source="AjbBa6_dqzmwRnqRVF5m-20" target="AjbBa6_dqzmwRnqRVF5m-1">
          <mxGeometry relative="1" as="geometry" />
        </mxCell>
        <mxCell id="AjbBa6_dqzmwRnqRVF5m-20" value="&lt;font style=&quot;font-size: 16px&quot;&gt;Billing&lt;br style=&quot;font-size: 16px;&quot;&gt;Service&lt;/font&gt;" style="verticalLabelPosition=bottom;aspect=fixed;html=1;verticalAlign=top;strokeColor=none;align=right;outlineConnect=0;shape=mxgraph.citrix.web_service;fontSize=16;labelPosition=left;" vertex="1" parent="1">
          <mxGeometry x="190" y="50" width="63" height="60" as="geometry" />
        </mxCell>
      </root>
    </mxGraphModel>
  </diagram>
</mxfile>
